<?xml version="1.0" standalone="no"?>
<!DOCTYPE svg PUBLIC "-//W3C//DTD SVG 20010904//EN"
 "http://www.w3.org/TR/2001/REC-SVG-20010904/DTD/svg10.dtd">
<svg version="1.0" xmlns="http://www.w3.org/2000/svg"
 width="300.000000pt" height="300.000000pt" viewBox="0 0 300.000000 300.000000"
 preserveAspectRatio="xMidYMid meet">
<metadata>
Created by potrace 1.14, written by Peter Selinger 2001-2017
</metadata>
<g transform="translate(0.000000,300.000000) scale(0.100000,-0.100000)"
fill="#000000" stroke="none">
<path d="M1418 2463 c-14 -16 -36 -54 -49 -87 -13 -32 -31 -61 -39 -63 -8 -3
-44 -18 -79 -34 -146 -66 -281 -273 -281 -430 0 -25 -3 -73 -6 -106 -6 -54 -9
-59 -28 -56 -75 13 -116 -171 -46 -208 8 -4 27 -10 41 -13 25 -5 26 -8 18 -48
-23 -120 -5 -195 71 -300 49 -67 50 -70 44 -122 -4 -30 -9 -58 -13 -64 -3 -5
-69 -36 -146 -68 l-140 -58 -215 -6 c-209 -6 -217 -7 -269 -34 -100 -51 -187
-150 -248 -282 -26 -56 -28 -68 -31 -233 -2 -110 0 -177 7 -184 5 -5 7 -23 4
-38 l-6 -29 78 0 c70 0 76 2 70 17 -46 105 -50 127 -50 273 1 177 19 238 94
308 85 79 152 101 275 87 64 -6 67 -8 81 -42 18 -43 18 -43 1 -43 -16 0 -28
-37 -15 -45 5 -3 17 -1 28 4 16 9 21 6 34 -27 l15 -37 -32 -10 c-25 -8 -32
-16 -34 -42 -4 -37 3 -39 52 -19 33 14 34 13 39 -10 4 -21 0 -24 -24 -24 -19
0 -29 -5 -29 -15 0 -10 11 -15 35 -15 34 0 35 -1 35 -40 0 -36 -2 -40 -25 -40
-34 0 -32 -27 3 -35 23 -5 28 -11 30 -40 2 -30 -1 -34 -24 -37 -39 -4 -50 -28
-31 -66 13 -27 13 -32 1 -32 -22 0 -17 -41 6 -47 11 -3 20 -9 20 -14 0 -13 65
-11 95 3 30 14 32 28 5 35 -15 4 -20 14 -20 40 0 21 5 33 13 32 43 -5 54 26
12 37 -20 5 -25 12 -25 38 0 31 2 32 32 28 26 -4 30 -2 25 12 -4 10 -7 22 -7
27 0 5 -13 9 -29 9 -27 0 -29 3 -33 44 -2 36 0 46 14 50 28 7 22 36 -7 36 -21
0 -25 5 -25 29 0 20 6 30 20 34 13 3 20 14 20 30 0 23 -2 24 -34 17 -31 -7
-35 -5 -40 15 -3 13 -8 30 -11 37 -4 9 4 19 20 26 14 6 25 18 25 27 0 12 -8
14 -39 9 -32 -5 -39 -3 -43 12 -3 11 -9 26 -12 35 -5 12 -1 18 16 21 13 3 106
31 207 62 101 31 188 56 194 56 5 0 22 9 38 20 24 18 31 19 49 8 22 -14 25
-24 10 -33 -5 -3 -10 -10 -10 -16 0 -12 43 -12 55 0 14 14 42 -10 47 -39 4
-30 28 -38 35 -12 8 31 43 17 43 -18 0 -23 4 -27 20 -23 11 3 20 12 20 20 0
23 35 10 38 -15 4 -27 22 -29 29 -4 5 22 53 18 53 -4 0 -8 9 -14 20 -14 11 0
20 7 20 15 0 8 7 15 15 15 8 0 15 -7 15 -15 0 -8 9 -15 20 -15 11 0 20 6 20
14 0 8 9 18 21 21 23 8 22 8 37 -20 11 -19 11 -18 12 8 0 22 4 27 25 27 16 0
25 -6 25 -15 0 -8 9 -15 21 -15 16 0 19 4 14 19 -4 14 0 23 14 30 26 15 28 14
34 -10 8 -29 33 -18 29 13 -2 19 5 28 25 37 19 9 29 9 31 2 2 -6 10 -11 17
-11 19 0 30 21 16 29 -8 5 -5 13 9 26 19 17 21 17 62 -3 24 -11 135 -49 248
-82 113 -34 207 -63 208 -65 2 -2 -4 -19 -12 -37 -15 -31 -20 -34 -51 -30 -41
5 -48 -14 -10 -28 23 -9 24 -11 11 -47 -12 -34 -16 -38 -45 -35 -27 3 -31 0
-31 -20 0 -16 8 -27 24 -34 20 -7 22 -13 15 -31 -5 -14 -17 -23 -29 -23 -24 0
-27 -25 -4 -38 11 -6 14 -20 12 -48 -3 -33 -7 -40 -28 -43 -26 -3 -40 -17 -40
-40 0 -10 8 -12 30 -7 29 5 30 4 30 -28 0 -28 -5 -35 -25 -40 -14 -4 -25 -13
-25 -21 0 -9 10 -15 25 -15 22 0 25 -4 25 -34 0 -25 -5 -35 -20 -39 -49 -13
-1 -47 66 -47 24 0 34 5 34 15 0 8 7 15 15 15 19 0 20 36 0 43 -8 4 -17 2 -20
-3 -4 -6 -13 -10 -21 -10 -11 0 -14 9 -12 33 3 28 7 32 36 35 17 2 32 7 32 11
0 16 -28 31 -44 25 -15 -6 -17 -1 -14 37 2 37 7 45 26 47 31 5 28 32 -4 32
-20 0 -25 4 -20 16 3 9 6 26 6 39 0 19 6 24 33 27 39 4 43 22 5 26 -29 3 -32
9 -22 35 5 14 11 14 45 2 l39 -14 0 34 c0 29 -4 34 -30 40 -34 8 -36 14 -15
56 13 24 19 28 35 19 26 -14 30 -13 30 9 0 11 -9 22 -19 26 -19 6 -19 8 -4 43
8 20 20 40 27 44 6 4 53 8 104 8 78 0 100 -4 140 -24 75 -38 126 -90 158 -159
28 -60 29 -67 29 -217 0 -135 -3 -161 -21 -205 -12 -27 -25 -58 -29 -67 -6
-16 1 -18 72 -18 l80 0 2 48 c1 26 3 137 4 247 l2 200 -47 80 c-82 138 -178
212 -301 230 -27 4 -89 2 -140 -5 -105 -14 -113 -12 -412 79 l-160 49 -15 89
-16 88 28 44 c23 37 28 57 29 110 0 37 3 84 7 106 6 35 11 40 42 46 48 10 70
41 70 99 0 37 -6 55 -25 78 -21 26 -25 40 -25 100 0 39 -7 106 -15 149 -8 43
-15 89 -15 103 0 14 -6 37 -14 52 -8 14 -19 43 -26 65 -20 62 -56 126 -87 155
-37 36 -134 79 -208 92 l-60 11 -30 62 c-55 114 -105 141 -157 86z m93 -35
c29 -33 62 -107 55 -124 -9 -23 -33 -16 -56 15 -31 44 -56 48 -91 15 -35 -33
-35 -30 -8 33 18 44 52 82 72 83 5 0 18 -10 28 -22z m17 -206 c24 -46 40 -87
36 -90 -3 -4 -9 -1 -12 7 -2 7 -13 22 -24 33 -26 26 -72 18 -110 -19 -25 -24
-28 -25 -28 -7 0 62 51 167 79 162 9 -2 36 -40 59 -86z m192 -4 c35 -16 75
-39 88 -51 44 -40 102 -141 124 -212 20 -65 21 -76 9 -181 -7 -61 -18 -135
-26 -165 -8 -30 -15 -56 -15 -58 0 -2 11 0 25 3 32 8 49 -20 31 -55 -10 -20
-19 -24 -54 -23 -41 1 -43 -3 -17 -36 12 -16 35 -128 35 -174 0 -15 -7 -41
-16 -59 -19 -36 -115 -156 -126 -156 -5 -1 -8 9 -8 22 -1 40 -17 -3 -30 -79
-14 -87 -31 -106 -125 -140 -70 -26 -154 -31 -201 -14 -41 16 -103 68 -121
104 -9 17 -26 58 -37 91 -24 69 -56 89 -56 36 0 -40 -13 -39 -42 1 -12 18 -31
41 -41 51 -10 10 -32 46 -48 80 -24 51 -29 75 -29 135 0 47 6 84 16 103 18 36
20 33 -27 52 -30 12 -38 22 -43 51 -8 42 7 76 33 76 17 0 19 10 17 133 l-1
133 38 76 c60 119 156 221 256 272 l34 18 -5 -24 c-3 -12 -12 -45 -19 -71 -12
-44 -12 -50 3 -61 14 -11 11 -18 -28 -65 -24 -29 -44 -60 -44 -69 0 -8 11 -34
25 -57 30 -51 79 -74 175 -81 46 -4 82 0 125 14 60 18 60 18 63 60 2 30 -6 60
-31 115 -22 46 -33 84 -30 100 3 13 -4 42 -15 63 -11 22 -23 49 -27 62 -6 22
-6 23 47 16 29 -4 82 -20 118 -36z m-191 -94 c34 -43 82 -148 88 -191 5 -39 5
-40 -33 -49 -22 -5 -70 -7 -107 -4 -60 4 -72 9 -93 33 -13 15 -24 35 -24 43 0
16 73 137 103 172 27 29 41 28 66 -4z m334 -1176 c4 -55 2 -70 -13 -83 -15
-14 -18 -13 -35 5 -23 26 -42 11 -25 -19 13 -26 6 -41 -20 -41 -23 0 -38 43
-22 63 5 6 13 28 17 47 7 36 74 116 86 102 4 -4 9 -37 12 -74z m-684 11 c56
-52 76 -174 22 -140 -10 7 -11 13 -2 30 18 32 3 46 -23 22 -22 -20 -23 -20
-37 -4 -11 13 -14 34 -11 71 2 28 7 52 10 52 4 0 22 -14 41 -31z m545 -145 c7
-19 -1 -34 -18 -34 -17 0 -28 37 -12 44 19 8 24 6 30 -10z m-424 -14 c0 -14
-15 -19 -29 -10 -17 10 -5 31 14 23 8 -3 15 -9 15 -13z m360 -15 c0 -21 -30
-31 -40 -14 -11 17 -3 29 21 29 10 0 19 -7 19 -15z m-290 -9 c0 -9 -7 -12 -20
-9 -11 3 -20 9 -20 14 0 5 9 9 20 9 11 0 20 -6 20 -14z m80 -17 c0 -5 -11 -9
-25 -9 -24 0 -32 10 -19 22 8 8 44 -3 44 -13z m140 0 c0 -12 -47 -12 -55 0 -3
5 5 11 17 13 27 5 38 1 38 -13z m-80 -1 c0 -4 -9 -8 -21 -8 -11 0 -18 4 -15 8
3 5 12 9 21 9 8 0 15 -4 15 -9z m-840 -669 c0 -37 -13 -37 -31 -1 -7 15 -15
30 -17 33 -1 4 9 4 23 2 20 -4 25 -11 25 -34z"/>
<path d="M1556 1761 c-44 -45 -43 -64 2 -32 16 11 42 25 57 31 29 11 29 33 -1
38 -12 2 -34 -13 -58 -37z"/>
<path d="M1335 1741 c-9 -15 16 -25 70 -28 l50 -3 -25 20 c-26 20 -85 27 -95
11z"/>
<path d="M1562 1714 c-30 -21 -54 -71 -47 -95 10 -29 46 -59 72 -59 12 0 38
14 58 31 26 24 35 39 35 63 0 62 -67 96 -118 60z"/>
<path d="M1357 1682 c-20 -22 -22 -53 -5 -70 19 -19 63 -14 83 8 18 20 18 21
-2 48 -25 33 -54 39 -76 14z"/>
<path d="M1481 1422 c-42 -25 -45 -25 -72 -9 -16 9 -29 12 -29 7 0 -13 41 -40
61 -40 9 0 19 -7 23 -15 6 -18 -16 -20 -45 -5 -12 7 -19 7 -19 1 0 -15 35 -31
69 -31 39 0 71 34 71 76 0 18 -3 35 -8 37 -4 3 -27 -7 -51 -21z m9 -60 c0 -15
-2 -15 -10 -2 -13 20 -13 33 0 25 6 -3 10 -14 10 -23z"/>
<path d="M1500 1299 c-60 -10 -181 -66 -188 -88 -3 -10 1 -12 17 -8 17 4 21 1
21 -18 0 -12 9 -34 21 -49 83 -105 276 -67 295 59 4 32 10 42 20 38 10 -4 12
-16 8 -47 l-5 -41 21 45 c21 43 21 46 4 78 -9 17 -21 32 -26 32 -11 0 -10 -17
2 -25 6 -3 10 -10 10 -14 0 -4 -21 2 -47 15 -63 29 -87 33 -153 23z m112 -41
c-6 -6 -49 -13 -99 -15 -83 -3 -86 -2 -58 12 38 18 175 21 157 3z m-2 -123 c0
-2 -13 -11 -30 -20 -35 -18 -85 -19 -131 -2 -33 12 -33 12 41 18 41 3 85 6 98
7 12 1 22 0 22 -3z"/>
<path d="M1285 1226 c-21 -31 -16 -47 24 -75 37 -27 40 -19 6 21 -20 24 -23
33 -14 50 16 30 3 33 -16 4z"/>
<path d="M1400 1071 c0 -18 41 -33 94 -33 53 -1 96 14 96 33 0 6 -7 6 -19 -1
-11 -5 -45 -10 -76 -10 -31 0 -65 5 -76 10 -12 7 -19 7 -19 1z"/>
<path d="M1405 970 c-50 -56 10 -150 79 -124 25 10 19 24 -10 24 -48 0 -68 50
-36 89 16 20 18 21 40 6 25 -18 30 -55 7 -55 -18 0 -20 16 -2 23 8 3 6 7 -5
12 -25 10 -48 -1 -48 -23 0 -28 24 -44 54 -36 34 8 44 45 22 79 -21 32 -74 34
-101 5z"/>
<path d="M429 637 c-49 -23 -143 -96 -135 -105 3 -3 43 13 88 35 46 22 100 46
121 54 42 15 47 24 15 33 -32 8 -37 7 -89 -17z"/>
<path d="M2485 652 c-44 -9 -30 -20 88 -69 l122 -52 -49 43 c-54 47 -130 84
-161 78z"/>
<path d="M1020 563 c0 -6 12 -16 27 -24 l26 -14 -44 -7 c-24 -3 -70 -7 -101
-7 -31 -1 -59 -5 -62 -10 -4 -5 51 -10 131 -10 113 -1 162 -7 276 -32 76 -17
141 -28 143 -26 6 5 -14 12 -211 76 -88 29 -166 55 -172 58 -7 2 -13 1 -13 -4z"/>
<path d="M1850 534 c-58 -19 -111 -32 -118 -29 -7 3 -10 1 -7 -4 5 -8 -26 -19
-130 -47 -27 -7 -28 -8 -8 -11 13 -3 80 7 149 21 90 19 159 26 236 26 59 0
108 4 108 9 0 4 -37 12 -82 16 l-81 7 29 23 c37 31 30 30 -96 -11z"/>
<path d="M1470 367 c0 -129 13 -367 21 -367 4 0 10 57 13 127 3 71 9 167 12
216 l6 87 -26 0 c-25 0 -26 -2 -26 -63z"/>
</g>
</svg>
